<svg xmlns="http://www.w3.org/2000/svg" style="display: none;"><symbol id="laptop" viewBox="0 0 115.383 115.383"><title>laptop</title><path d="M11.025,87.78h93.333c1.931,0,3.5-1.57,3.5-3.5v-60c0-1.93-1.569-3.5-3.5-3.5H11.025c-1.93,0-3.5,1.57-3.5,3.5v60 C7.525,86.21,9.096,87.78,11.025,87.78z M10.525,24.28c0-0.276,0.224-0.5,0.5-0.5h93.333c0.276,0,0.5,0.224,0.5,0.5v60 c0,0.276-0.224,0.5-0.5,0.5H11.025c-0.276,0-0.5-0.224-0.5-0.5V24.28z M115.383,90.458v2.801c0,0.742-0.602,1.344-1.344,1.344 H1.344C0.602,94.603,0,94.001,0,93.259v-2.801h47.387c0.234,0.781,0.95,1.354,1.807,1.354h16.996c0.856,0,1.572-0.572,1.807-1.354 H115.383z"/></symbol><symbol id="slider" viewBox="0 -76 512 512"><title>slider</title><path d="m426.324219 39.609375c-6.535157-22.839844-27.585938-39.609375-52.496094-39.609375s-45.960937 16.769531-52.5 39.609375h-321.328125v30h321.332031c6.535157 22.835937 27.585938 39.609375 52.496094 39.609375s45.960937-16.773438 52.5-39.609375h85.671875v-30zm-52.496094 39.609375c-13.570313 0-24.609375-11.039062-24.609375-24.609375s11.042969-24.609375 24.609375-24.609375c13.570313 0 24.609375 11.039062 24.609375 24.609375s-11.039062 24.609375-24.609375 24.609375zm0 0"/><path d="m96.152344 125.480469c-24.910156 0-45.960938 16.773437-52.496094 39.609375h-43.65625v30h43.65625c6.535156 22.839844 27.589844 39.609375 52.5 39.609375s45.960938-16.769531 52.496094-39.609375h363.347656v-30h-363.347656c-6.535156-22.835938-27.589844-39.609375-52.5-39.609375zm0 79.21875c-13.566406 0-24.605469-11.039063-24.605469-24.609375 0-13.566406 11.039063-24.609375 24.605469-24.609375 13.570312 0 24.609375 11.042969 24.609375 24.609375 0 13.570312-11.039063 24.609375-24.609375 24.609375zm0 0"/><path d="m264.410156 250.964844c-24.910156 0-45.964844 16.769531-52.5 39.609375h-211.910156v30h211.910156c6.535156 22.835937 27.589844 39.609375 52.5 39.609375 24.90625 0 45.960938-16.773438 52.496094-39.609375h195.09375v-30h-195.09375c-6.535156-22.839844-27.589844-39.609375-52.496094-39.609375zm0 79.21875c-13.570312 0-24.609375-11.039063-24.609375-24.609375 0-13.570313 11.039063-24.609375 24.609375-24.609375 13.566406 0 24.609375 11.039062 24.609375 24.609375 0 13.570312-11.039062 24.609375-24.609375 24.609375zm0 0"/></symbol><symbol id="brochure" viewBox="0 0 490 490"><title>brochure</title><path d="M489.524,10.356c0-4.978-4.935-12.339-13.724-9.86L322.904,51.645L169.892,0.846c-0.581-0.269-3.292-1.355-6.592,0.008 L7.11,53.104c-4.25,1.418-7.115,5.399-7.11,9.882l0.476,416.576c0.004,3.346,1.615,6.487,4.338,8.446 c1.797,1.29,6.079,2.859,9.386,1.414l152.896-51.148l153.013,50.798c0.004,0.002,0.011,0.004,0.011,0.004 c2.107,0.709,4.387,0.715,6.497,0.016l156.274-52.277c4.25-1.419,7.115-5.399,7.11-9.884L489.524,10.356z M21.502,465.133 L21.051,70.516l135.365-45.28l0.451,394.617L21.502,465.133z M177.7,419.83L177.25,25.211l135.468,44.971l0.451,394.618 L177.7,419.83z M334.002,464.777l-0.451-394.618l135.365-45.28l0.451,394.618L334.002,464.777z"/></symbol><symbol id="heart" viewBox="0 0 51.997 51.997"><title>heart</title><path d="M51.911,16.242C51.152,7.888,45.239,1.827,37.839,1.827c-4.93,0-9.444,2.653-11.984,6.905 c-2.517-4.307-6.846-6.906-11.697-6.906c-7.399,0-13.313,6.061-14.071,14.415c-0.06,0.369-0.306,2.311,0.442,5.478 c1.078,4.568,3.568,8.723,7.199,12.013l18.115,16.439l18.426-16.438c3.631-3.291,6.121-7.445,7.199-12.014 C52.216,18.553,51.97,16.611,51.911,16.242z M49.521,21.261c-0.984,4.172-3.265,7.973-6.59,10.985L25.855,47.481L9.072,32.25 c-3.331-3.018-5.611-6.818-6.596-10.99c-0.708-2.997-0.417-4.69-0.416-4.701l0.015-0.101C2.725,9.139,7.806,3.826,14.158,3.826 c4.687,0,8.813,2.88,10.771,7.515l0.921,2.183l0.921-2.183c1.927-4.564,6.271-7.514,11.069-7.514 c6.351,0,11.433,5.313,12.096,12.727C49.938,16.57,50.229,18.264,49.521,21.261z"/></symbol><symbol id="arrow-down-sign-to-navigate" viewBox="0 0 451.847 451.847"><title>arrow-down-sign-to-navigate</title><path d="M225.923,354.706c-8.098,0-16.195-3.092-22.369-9.263L9.27,151.157c-12.359-12.359-12.359-32.397,0-44.751 c12.354-12.354,32.388-12.354,44.748,0l171.905,171.915l171.906-171.909c12.359-12.354,32.391-12.354,44.744,0 c12.365,12.354,12.365,32.392,0,44.751L248.292,345.449C242.115,351.621,234.018,354.706,225.923,354.706z"/></symbol><symbol id="contact" viewBox="0 -67 380 380"><title>contact</title><path d="m30 0h320c14.402344.0390625 26.761719 10.261719 29.5 24.398438l-189.5 105.601562-189.5-105.601562c2.738281-14.136719 15.097656-24.3593755 29.5-24.398438zm320 246.601562h-320c-16.546875-.050781-29.953125-13.453124-30-30v-169.601562l185.101562 103.199219c1.5.824219 3.183594 1.273437 4.898438 1.300781 1.722656.019531 3.414062-.429688 4.898438-1.300781l185.101562-103.199219v169.601562c-.011719 16.5625-13.4375 29.984376-30 30zm0 0"/></symbol><symbol id="facebook-logo" viewBox="0 0 97.75 97.75"><title>facebook-logo</title><path d="M48.875,0C21.882,0,0,21.882,0,48.875S21.882,97.75,48.875,97.75S97.75,75.868,97.75,48.875S75.868,0,48.875,0z M67.521,24.89l-6.76,0.003c-5.301,0-6.326,2.519-6.326,6.215v8.15h12.641L67.07,52.023H54.436v32.758H41.251V52.023H30.229V39.258 h11.022v-9.414c0-10.925,6.675-16.875,16.42-16.875l9.851,0.015V24.89L67.521,24.89z"/></symbol><symbol id="twitter-social-logotype" viewBox="0 0 97.75 97.75"><title>twitter-social-logotype</title><path d="M48.875,0C21.882,0,0,21.882,0,48.875S21.882,97.75,48.875,97.75S97.75,75.868,97.75,48.875S75.868,0,48.875,0z M78.43,35.841c0.023,0.577,0.035,1.155,0.035,1.736c0,20.878-15.887,42.473-42.473,42.473c-8.127,0-16.04-2.319-22.883-6.708 c-0.143-0.091-0.202-0.268-0.145-0.427c0.057-0.158,0.218-0.256,0.383-0.237c1.148,0.137,2.322,0.205,3.487,0.205 c6.323,0,12.309-1.955,17.372-5.664c-6.069-0.512-11.285-4.619-13.161-10.478c-0.039-0.122-0.011-0.255,0.073-0.351 c0.085-0.096,0.215-0.138,0.339-0.115c1.682,0.319,3.392,0.34,5.04,0.072c-6.259-1.945-10.658-7.808-10.658-14.483l0.002-0.194 c0.003-0.127,0.072-0.243,0.182-0.306c0.109-0.064,0.245-0.065,0.355-0.003c1.632,0.906,3.438,1.488,5.291,1.711 c-3.597-2.867-5.709-7.213-5.709-11.862c0-2.682,0.71-5.318,2.054-7.623c0.06-0.103,0.166-0.169,0.284-0.178 c0.119-0.012,0.234,0.04,0.309,0.132c7.362,9.03,18.191,14.59,29.771,15.305c-0.193-0.972-0.291-1.974-0.291-2.985 c0-8.361,6.802-15.162,15.162-15.162c4.11,0,8.082,1.689,10.929,4.641c3.209-0.654,6.266-1.834,9.09-3.508 c0.129-0.077,0.291-0.065,0.41,0.028c0.116,0.094,0.164,0.25,0.118,0.394c-0.957,2.993-2.823,5.604-5.33,7.489 c2.361-0.411,4.652-1.105,6.831-2.072c0.146-0.067,0.319-0.025,0.424,0.098c0.104,0.124,0.113,0.301,0.023,0.435 C83.759,31.175,81.299,33.744,78.43,35.841z"/></symbol><symbol id="google-plus-social-logotype" viewBox="0 0 97.75 97.75"><title>google-plus-social-logotype</title><path d="M50.729,33.67c0-6.775-4.039-17.311-11.826-17.311c-2.448,0-5.071,1.222-6.577,3.105 c-1.598,1.979-2.062,4.511-2.062,6.965c0,6.3,3.658,16.741,11.736,16.741c2.345,0,4.872-1.123,6.382-2.63 C50.541,38.369,50.729,35.365,50.729,33.67z"/><path d="M45.657,58.414c-0.748-0.094-1.218-0.094-2.156-0.094c-0.847,0-5.918,0.185-9.859,1.511 c-2.064,0.748-8.071,3.008-8.071,9.687c0,6.682,6.478,11.485,16.522,11.485c9.015,0,13.804-4.338,13.804-10.163 C55.896,66.027,52.798,63.496,45.657,58.414z"/><path d="M48.875,0C21.882,0,0,21.882,0,48.875S21.882,97.75,48.875,97.75S97.75,75.868,97.75,48.875S75.868,0,48.875,0z M37.489,84.945c-13.616,0-20.184-6.488-20.184-13.455c0-3.385,1.687-8.18,7.227-11.475c5.818-3.576,13.709-4.043,17.936-4.334 c-1.319-1.692-2.816-3.479-2.816-6.395c0-1.597,0.47-2.539,0.934-3.669c-1.034,0.096-2.062,0.188-3.002,0.188 c-9.948,0-15.581-7.438-15.581-14.775c0-4.322,1.969-9.124,6.005-12.605c5.354-4.422,12.67-5.622,17.744-5.622H64.25l-6.105,3.836 h-5.816c2.158,1.786,6.658,5.549,6.658,12.703c0,6.957-3.938,10.259-7.879,13.36c-1.223,1.221-2.632,2.538-2.632,4.611 c0,2.065,1.41,3.193,2.44,4.047l3.383,2.628c4.132,3.479,7.888,6.679,7.886,13.177C62.184,76.012,53.635,84.945,37.489,84.945z M78.005,47.725v9.464h-4.646v-9.464h-9.393v-4.697h9.393v-9.406h4.646v9.406h9.438v4.697H78.005z"/></symbol><symbol id="dribbble-logo" viewBox="0 0 97.75 97.75"><title>dribbble-logo</title><path d="M46.927,38.775C42.032,30.117,36.8,22.816,35.746,21.367c-8.416,4.016-14.719,11.764-16.74,21.088 c0.084,0,0.184,0,0.299,0C22.121,42.455,33.789,42.229,46.927,38.775z"/><path d="M69.01,25.984C63.628,21.266,56.582,18.4,48.875,18.4c-2.37,0-4.676,0.273-6.893,0.789 c1.242,1.678,6.471,8.9,11.243,17.631C63.539,32.92,68.159,27.148,69.01,25.984z"/><path d="M57.713,45.988c0.208,0.488,0.41,0.975,0.609,1.459c2.365-0.291,4.725-0.404,6.967-0.404 c6.951,0,12.768,1.088,14.141,1.365c-0.117-7.033-2.627-13.494-6.753-18.607c-1.067,1.383-6.229,7.498-16.925,11.904 C56.439,43.115,57.098,44.547,57.713,45.988z"/><path d="M50.969,49.018c0.336-0.108,0.676-0.207,1.016-0.307c-0.728-1.633-1.512-3.268-2.336-4.879 c-13.565,4.027-26.731,4.342-30.522,4.342c-0.35,0-0.617-0.002-0.801-0.006c-0.006,0.252-0.013,0.504-0.013,0.754 c0.001,7.752,2.91,14.834,7.693,20.223C27.297,67.012,35.695,53.951,50.969,49.018z"/><path d="M48.875,0C21.882,0,0,21.883,0,48.875S21.882,97.75,48.875,97.75S97.75,75.867,97.75,48.875S75.868,0,48.875,0z M48.875,85.004c-19.948,0-36.176-16.207-36.177-36.129C12.7,28.953,28.927,12.748,48.875,12.746 c19.948,0.002,36.175,16.207,36.176,36.129C85.05,68.797,68.823,85.004,48.875,85.004z"/><path d="M60.327,52.631c3.801,10.484,5.448,19.082,5.856,21.432c6.692-4.608,11.461-11.811,12.84-20.141 c-1.16-0.354-6.157-1.752-12.543-1.752C64.535,52.17,62.46,52.303,60.327,52.631z"/><path d="M54.184,54.143c-16.742,5.826-23.078,17.236-23.95,18.949c5.164,3.979,11.628,6.352,18.642,6.352 c4.183,0,8.172-0.844,11.806-2.37c-0.49-2.843-2.269-12.013-6.464-22.943C54.206,54.135,54.195,54.139,54.184,54.143z"/></symbol><symbol id="linkedin-logo" viewBox="0 0 97.75 97.75"><title>linkedin-logo</title><path d="M48.875,0C21.882,0,0,21.882,0,48.875S21.882,97.75,48.875,97.75S97.75,75.868,97.75,48.875S75.868,0,48.875,0z M30.562,81.966h-13.74V37.758h13.74V81.966z M23.695,31.715c-4.404,0-7.969-3.57-7.969-7.968c0.001-4.394,3.565-7.964,7.969-7.964 c4.392,0,7.962,3.57,7.962,7.964C31.657,28.146,28.086,31.715,23.695,31.715z M82.023,81.966H68.294V60.467 c0-5.127-0.095-11.721-7.142-11.721c-7.146,0-8.245,5.584-8.245,11.35v21.869H39.179V37.758h13.178v6.041h0.185 c1.835-3.476,6.315-7.14,13-7.14c13.913,0,16.481,9.156,16.481,21.059V81.966z"/></symbol><symbol id="vimeo-social-logo" viewBox="0 0 97.75 97.75"><title>vimeo-social-logo</title><path d="M48.875,0C21.883,0,0,21.882,0,48.875S21.883,97.75,48.875,97.75S97.75,75.868,97.75,48.875S75.867,0,48.875,0z M83.428,32.795c-0.306,6.734-5.014,15.959-14.109,27.666c-9.402,12.229-17.36,18.344-23.873,18.344 c-4.029,0-7.44-3.723-10.229-11.173c-1.861-6.827-3.724-13.651-5.584-20.479c-2.067-7.446-4.287-11.174-6.663-11.174 c-0.516,0-2.33,1.091-5.431,3.261l-3.252-4.195c3.411-2.997,6.78-6,10.093-9.006c4.555-3.933,7.971-6.004,10.252-6.214 c5.383-0.517,8.697,3.167,9.941,11.044c1.344,8.504,2.273,13.793,2.795,15.861c1.551,7.055,3.26,10.579,5.122,10.579 c1.449,0,3.627-2.291,6.525-6.863c2.896-4.577,4.448-8.061,4.657-10.448c0.413-3.951-1.14-5.93-4.657-5.93 c-1.658,0-3.367,0.378-5.121,1.135c3.399-11.138,9.895-16.551,19.484-16.245C80.488,19.167,83.837,23.779,83.428,32.795z"/></symbol></svg>